<svg xmlns="http://www.w3.org/2000/svg" viewBox="0 0 75.392 65.532"><defs><style>.aaf5d296-b4e3-4926-82b3-32e183d4938b{fill:#97d1d9;}</style></defs><title>Asset 2</title><g id="ab488d3b-806c-4e3a-963e-5419f01c62cf" data-name="Layer 2"><g id="f66e10e9-779a-4532-b8a4-2e95bd5b56a9" data-name="Layer 1"><path class="aaf5d296-b4e3-4926-82b3-32e183d4938b" d="M27.805,23.016c4.881-.883,7.825-6.726,6.576-13.05S28.162-.77,23.281.112,15.456,6.838,16.7,13.163,22.924,23.9,27.805,23.016Zm-10.07,5.718C15,23.028,9.125,20.008,4.61,21.989S-1.351,30.2,1.383,35.908s8.609,8.725,13.125,6.744S20.468,34.44,17.735,28.734Zm29.851-5.718c4.881.883,9.851-3.528,11.1-9.853S56.992,1,52.111.112s-9.851,3.529-11.1,9.854S42.705,22.133,47.586,23.016Zm23.2-1.027c-4.515-1.981-10.392,1.039-13.125,6.745s-1.289,11.937,3.227,13.918,10.392-1.038,13.125-6.744S75.3,23.97,70.782,21.989ZM56.624,48.449c-2.893-2.192-5.546-3.231-7.475-9.23s-4.1-10.269-11.092-10.5-9.886,6.461-11.091,9.691-1.929,6.461-6.028,8.653S15.874,55.6,17.441,60.1s8.922,5.884,12.659,5.308,5.787-1.962,7.716-1.962c4.823,0,7.234,3,14.829,1.385C62.3,62.779,59.517,50.641,56.624,48.449Z"/></g></g></svg>